<svg version="1.1" xmlns="http://www.w3.org/2000/svg" style="display: block;" viewBox="0 0 2048 1365" width="1248" height="832" preserveAspectRatio="none">
<path transform="translate(0,0)" fill="rgb(17,40,100)" d="M 1035.74 427.233 C 1053.16 427.867 1064.88 441.741 1057.33 459.075 C 1053.88 467.012 1049.61 467.947 1041.85 470.772 C 1040.38 475.236 1040.41 487.454 1040.23 492.756 C 1047.56 493.553 1054.82 494.801 1061.99 496.494 C 1105.73 507.218 1131.09 531.587 1153.69 568.857 C 1160.45 569.496 1167.45 569.774 1172.96 573.981 C 1191.7 588.29 1192.09 616.077 1179.57 633.962 C 1209.22 633.931 1236.74 638.939 1240.34 673.086 C 1310.1 673.762 1380.21 672.544 1449.96 673.357 L 1450.09 697.807 L 994.5 697.816 L 585.017 697.88 L 585.346 673.358 L 796.221 673.3 C 798.036 664.036 799.554 656.314 806.577 649.412 C 825.561 630.759 854.694 634.284 878.419 633.908 C 874.255 631.841 864.808 628.107 861.468 625.412 C 845.878 612.834 851.218 581.776 861.87 567.896 C 869.191 558.357 879.474 558.063 889.986 556.872 C 922.487 506.254 966.945 492.584 1024.5 491.576 L 1024.79 469.33 C 1008.57 453.355 1011.29 431.867 1035.74 427.233 z M 1024.5 673.117 L 1135.87 673.262 C 1138.09 654.798 1140.01 650.826 1153.88 637.697 C 1163.57 552.12 1094.36 497.707 1013.77 500.443 C 969.185 502.317 929.475 514.101 903.025 552.906 C 884.34 580.318 880.4 607.565 884.09 639.734 C 899.195 648.924 901.535 655.727 901.594 673.226 L 1024.5 673.117 z M 1164.28 689.661 C 1167.17 678.129 1169.72 672.659 1175.44 662.23 C 1173.34 679.99 1171.96 693.268 1195.06 690.727 C 1207.15 683.638 1208.14 678.937 1212.2 665.43 C 1212.12 670.136 1211.51 685.035 1212.62 688.745 C 1219.36 689.625 1228.5 681.524 1230.42 675.656 C 1239.57 647.681 1193.62 641.496 1177.36 642.352 C 1162.22 644.001 1144.16 649.755 1145.38 669.842 C 1145.98 679.639 1155.62 686.325 1164.28 689.661 z"/>
<path transform="translate(0,0)" fill="rgb(17,40,100)" d="M 982.701 560.454 C 1021.28 559.456 1121.31 554.493 1126.86 611.333 C 1130.69 650.65 1089.94 658.037 1059.38 660.824 C 1025.35 661.381 953.195 662.759 926.404 639.146 C 917.799 631.669 912.619 621.004 912.063 609.618 C 909.559 566.801 950.336 561.8 982.701 560.454 z M 1072.69 611.328 C 1091.62 602.385 1083.18 585.629 1066 586.017 C 1048.22 596.201 1054.14 613.465 1072.69 611.328 z M 970.436 606.249 C 974.468 604.353 977.191 602.939 979.014 598.461 C 980.276 595.389 980.171 591.924 978.726 588.934 C 975.522 582.331 969.889 580.64 963.103 580.902 C 946.005 590.342 950.363 606.673 970.436 606.249 z"/>
<path transform="translate(0,0)" fill="rgb(36,174,235)" d="M 1086.58 592.43 C 1103.29 606.38 1097.53 636.159 1075.97 639.702 C 1070.21 640.694 1064.29 639.268 1059.61 635.76 C 1052.09 630.05 1050.01 621.086 1049 612.271 C 1049.19 611.082 1049.41 609.897 1049.66 608.72 C 1050.3 605.846 1050.89 602.039 1053.05 600.698 L 1052.76 599.721 C 1053.3 605.382 1053.83 612.218 1055.38 617.651 C 1057.16 623.622 1059.7 626.367 1064.86 629.248 C 1080.05 637.719 1089.53 622.381 1090.45 609.081 C 1090.89 602.639 1089.11 598.443 1086.58 592.43 z"/>
<path transform="translate(0,0)" fill="rgb(36,174,235)" d="M 981.529 586.629 C 1005.95 597.62 989.999 645.66 961.587 633.375 C 954.29 630.22 950.629 621.05 948.517 614.073 C 948.081 610.43 947.632 605.288 949.414 602.076 C 951.379 606.805 952.602 614.478 954.789 618.075 C 964.784 634.514 983.681 626.095 987.03 610.075 C 989.047 600.424 986.465 594.229 981.529 586.629 z"/>
<path transform="translate(0,0)" fill="rgb(231,230,231)" d="M 844.53 643.34 C 890.537 636.569 913.743 673.98 874.197 690.17 C 870.589 679.249 867.256 672.857 861.497 663.194 C 863.092 674.142 865.665 682.176 856.825 690.48 C 836.016 695.824 830.467 681.284 825.308 664.971 C 824.902 672.251 826.147 680.952 825.594 688.03 C 825.534 688.805 823.355 689.397 822.309 689.824 C 803.592 688.576 791.505 650.422 844.53 643.34 z"/>
<path transform="translate(0,0)" fill="rgb(36,174,235)" d="M 1035.4 433.446 C 1044.34 432.471 1052.41 438.842 1053.53 447.76 C 1054.65 456.677 1048.41 464.846 1039.51 466.113 C 1033.62 466.952 1027.74 464.55 1024.12 459.831 C 1020.51 455.112 1019.71 448.809 1022.05 443.341 C 1024.39 437.873 1029.49 434.09 1035.4 433.446 z"/>
<path transform="translate(0,0)" fill="rgb(36,174,235)" d="M 878.664 565.943 C 880.47 565.932 881.645 566.16 883.401 566.431 C 884.224 569.793 876.071 590.353 875.118 596.27 C 874.218 601.853 874.371 617 871.769 620.873 L 868.795 620.239 C 852.077 606.883 858.525 573.629 878.664 565.943 z"/>
<path transform="translate(0,0)" fill="rgb(248,169,54)" d="M 1157.22 577.892 C 1179.82 578.177 1185.49 608.417 1176.24 623.774 C 1173.31 625.595 1169.05 627.997 1165.62 627.553 C 1164.37 625.253 1164.58 619.535 1164.46 616.72 C 1163.9 603.195 1160.67 590.972 1157.22 577.892 z"/>
<path transform="translate(0,0)" fill="rgb(17,40,100)" d="M 623.281 714.481 C 636.325 713.745 651.424 714.102 664.628 714.12 C 687.494 775.837 711.271 837.212 735.951 898.225 C 723.949 898.212 711.948 898.121 699.948 897.954 C 694.289 883.491 688.787 868.967 683.444 854.385 L 666.5 854.211 L 605.282 854.237 C 599.972 868.84 594.788 883.488 589.731 898.181 L 553.627 898.148 C 565.79 860.209 583.374 821.788 596.612 783.974 C 604.591 761.186 613.964 736.761 623.281 714.481 z M 612.736 830.087 L 644.5 830.046 L 674.45 830.028 C 667.379 812.018 661.196 793.531 654.413 775.43 C 651.975 768.922 646.448 752.714 643.161 747.588 C 632.301 775 623.407 803.153 612.736 830.087 z"/>
<path transform="translate(0,0)" fill="rgb(17,40,100)" d="M 992.736 780.425 C 1009.23 778.614 1031.71 780.076 1043.96 792.396 C 1057.63 806.135 1055.42 826.766 1055.67 844.599 C 1055.91 862.679 1055.87 880.759 1055.95 898.81 C 1046.82 898.885 1037.23 898.583 1028.07 898.427 C 1027.98 893.186 1027.87 887.946 1027.72 882.706 C 1007.53 903.606 967.751 910.988 946.912 887.784 C 943.066 881.392 941.192 876.132 940.736 868.539 C 940.16 858.461 943.716 848.584 950.584 841.186 C 968.014 822.553 1003.95 825.591 1027.78 825.006 C 1023.38 802.864 1010.55 800.09 989.787 801.702 C 975.283 802.828 964.854 807.71 952.365 814.43 C 952.337 806.851 952.379 799.272 952.491 791.694 C 967.1 784.12 976.833 782.029 992.736 780.425 z M 1003.49 880.94 C 1025.79 874.189 1027.32 865.733 1026.95 844.284 C 1016.19 843.993 1004.79 843.755 994.042 844.378 C 986.068 845.839 978.565 847.602 973.659 854.918 C 971.343 858.306 970.529 862.499 971.41 866.507 C 974.637 881.085 991.52 882.321 1003.49 880.94 z"/>
<path transform="translate(0,0)" fill="rgb(17,40,100)" d="M 1357.65 780.422 C 1359.43 780.284 1361.22 780.204 1363.01 780.183 C 1414.23 779.554 1417.93 803.166 1416.54 846.798 C 1416.02 863.108 1416.59 881.656 1416.61 898.136 L 1390.1 898.22 C 1389.96 893.329 1389.31 887.433 1388.89 882.48 C 1386.76 884.652 1384.55 886.729 1382.24 888.706 C 1362.33 905.761 1326.44 907.548 1308.54 886.355 C 1304.87 879.91 1302.92 872.628 1302.88 865.21 C 1302.45 823.746 1361.16 825.56 1388.96 825.585 C 1383.76 786.361 1338.22 803.006 1314.49 813.379 C 1314.58 805.624 1314.72 798.586 1315.19 790.826 C 1329.9 783.307 1341.76 781.8 1357.65 780.422 z M 1346.87 880.733 C 1363.29 883.003 1378.26 880.079 1387.71 865.256 C 1388.25 857.939 1388.95 850.492 1388.8 843.168 L 1380.04 843.49 C 1364.45 843.745 1332.25 841.291 1333.73 865.488 C 1334.24 873.756 1339.53 878.044 1346.87 880.733 z"/>
<path transform="translate(0,0)" fill="rgb(17,40,100)" d="M 952.179 738.516 C 954.105 738.462 953.969 738.439 955.708 739.272 C 955.208 745.233 938.348 784.795 935.401 792.342 L 894.684 898.858 L 857.756 898.816 C 839.646 854.726 822.71 809.619 804.905 765.288 C 801.365 756.565 797.853 748.133 794.878 739.194 L 827.508 738.982 C 844.738 781.119 859.145 824.509 877.044 867.548 C 892.815 828.476 910.375 778.841 924.24 738.883 C 933.266 738.551 943.084 738.626 952.179 738.516 z"/>
<path transform="translate(0,0)" fill="rgb(17,40,100)" d="M 1145.24 780.382 C 1147.44 780.256 1149.64 780.186 1151.84 780.17 C 1196.17 780.098 1195.23 813.343 1194.07 846.94 C 1193.49 863.626 1193.94 881.448 1193.93 898.199 C 1183.76 898.327 1173.35 898.201 1163.16 898.195 C 1162.82 880.587 1166.28 828.434 1160.03 815.372 C 1157.51 810.085 1153.14 805.918 1147.56 803.977 C 1138.09 800.68 1126.9 804.327 1118.33 808.533 C 1117.11 809.471 1115.95 810.484 1114.86 811.568 C 1103.27 823.082 1107.76 880.145 1107.91 898.169 L 1078.55 898.251 L 1078.13 783.02 C 1087.47 782.631 1096.58 782.788 1105.93 782.889 C 1105.9 788.407 1106.35 794.063 1106.7 799.582 C 1120.58 786.186 1125.78 782.591 1145.24 780.382 z"/>
<path transform="translate(0,0)" fill="rgb(17,40,100)" d="M 1249.52 741.257 C 1253.19 740.735 1252.51 740.3 1255.53 741.473 C 1256.6 751.065 1255.64 771.497 1255.85 782.762 L 1291.87 782.884 L 1291.83 804.362 C 1279.81 804.282 1267.79 804.287 1255.77 804.378 C 1255.72 815.489 1255.75 828.148 1255.42 839.184 C 1254.52 869.433 1255.26 886.401 1291.37 877.277 C 1291.57 882.203 1293.39 895.895 1289.8 898.605 C 1282.48 900.248 1275.01 901.178 1267.51 901.38 C 1256.48 901.656 1244.52 900.304 1236.27 892.2 C 1224.98 881.118 1226.9 863.932 1226.94 849.517 C 1226.98 834.451 1227.05 819.447 1227.09 804.412 L 1208.68 804.317 L 1208.59 783.039 L 1226.87 782.807 C 1227.04 770.465 1226.55 757.95 1226.19 745.599 C 1232.73 744.806 1242.8 742.572 1249.52 741.257 z"/>
<path transform="translate(0,0)" fill="rgb(17,40,100)" d="M 745.887 782.119 L 776.929 781.911 C 777.432 820.232 776.855 859.758 776.927 898.233 L 745.971 898.287 L 745.887 782.119 z"/>
<path transform="translate(0,0)" fill="rgb(17,40,100)" d="M 772.66 739.525 C 773.096 739.495 775.731 739.885 776.348 739.966 C 779.312 743.953 777.566 759.321 777.239 764.84 L 748.75 764.833 L 746.981 764.789 C 744.222 761.174 745.429 745.263 745.559 739.928 C 755.047 740.033 763.195 740.032 772.66 739.525 z"/>
</svg>